<svg width="27" height="29" viewBox="0 0 27 29" fill="none" xmlns="http://www.w3.org/2000/svg">
<path d="M26.1495 14.611C26.1487 7.36509 20.4846 1.49121 13.4966 1.49121C6.50869 1.49121 0.84375 7.36596 0.84375 14.6127C0.84375 21.1358 5.43375 26.5468 11.4463 27.5627L11.5189 27.5732V18.405H8.30587V14.611H11.5189V11.7217C11.5028 11.5756 11.4944 11.4058 11.4944 11.2343C11.4944 8.67671 13.4941 6.60296 15.9604 6.60296C16.0793 6.60296 16.1975 6.60821 16.3148 6.61696L16.2996 6.61609C17.3112 6.63096 18.29 6.72371 19.2451 6.88909L19.132 6.87246V10.1012H17.5357C17.4631 10.0907 17.3796 10.0846 17.2952 10.0846C16.2852 10.0846 15.4659 10.9333 15.4659 11.9816C15.4659 12.0411 15.4685 12.0997 15.4735 12.1583L15.4727 12.1505V14.611H18.9818L18.4207 18.405H15.4727V27.5732C21.5587 26.546 26.1487 21.1341 26.1495 14.611Z" fill="white"/>
</svg>
