<svg width="28" height="29" viewBox="0 0 28 29" fill="none" xmlns="http://www.w3.org/2000/svg">
<g clip-path="url(#clip0_675_168)">
<path d="M19.6846 10.2306C19.5631 9.91599 19.3771 9.63029 19.1385 9.39192C18.8998 9.15356 18.6139 8.96782 18.2992 8.84667C17.8658 8.68614 17.408 8.6013 16.9458 8.59583C16.1773 8.56083 15.9469 8.55208 14 8.55208C12.0531 8.55208 11.8227 8.56083 11.0542 8.59583C10.5915 8.60113 10.1333 8.68598 9.69938 8.84667C9.38475 8.96815 9.09904 9.15419 8.86068 9.39281C8.62232 9.63142 8.43658 9.91732 8.31542 10.2321C8.1549 10.6655 8.07005 11.1233 8.06459 11.5854C8.02959 12.354 8.02084 12.5844 8.02084 14.5313C8.02084 16.4781 8.02959 16.7085 8.06459 17.4771C8.06989 17.9397 8.15473 18.398 8.31542 18.8319C8.43691 19.1465 8.62295 19.4322 8.86156 19.6706C9.10018 19.9089 9.38608 20.0947 9.70084 20.2158C10.1343 20.3764 10.592 20.4612 11.0542 20.4667C11.8227 20.5017 12.0531 20.509 14 20.509C15.9469 20.509 16.1773 20.5017 16.9458 20.4652C17.4084 20.4604 17.8667 20.376 18.3006 20.2158C18.6153 20.0944 18.901 19.9083 19.1393 19.6697C19.3777 19.4311 19.5634 19.1452 19.6846 18.8304C19.8451 18.397 19.93 17.9392 19.9354 17.4771C19.9704 16.7085 19.9777 16.4781 19.9777 14.5313C19.9777 12.5844 19.9704 12.354 19.934 11.5854C19.9291 11.1229 19.8448 10.6646 19.6846 10.2306ZM14 18.2763C13.2593 18.2763 12.5353 18.0566 11.9194 17.6451C11.3035 17.2336 10.8235 16.6487 10.5401 15.9644C10.2566 15.2801 10.1825 14.5271 10.327 13.8006C10.4715 13.0742 10.8281 12.4069 11.3519 11.8831C11.8756 11.3594 12.5429 11.0027 13.2694 10.8582C13.9959 10.7137 14.7488 10.7879 15.4332 11.0713C16.1175 11.3548 16.7024 11.8348 17.1139 12.4506C17.5254 13.0665 17.745 13.7906 17.745 14.5313C17.745 15.5245 17.3504 16.477 16.6481 17.1794C15.9458 17.8817 14.9932 18.2763 14 18.2763ZM17.8923 11.514C17.7192 11.514 17.5501 11.4626 17.4062 11.3665C17.2623 11.2703 17.1501 11.1337 17.0839 10.9738C17.0177 10.8139 17.0004 10.638 17.0341 10.4683C17.0679 10.2985 17.1512 10.1426 17.2736 10.0202C17.396 9.89787 17.5519 9.81453 17.7216 9.78077C17.8913 9.74701 18.0673 9.76434 18.2271 9.83056C18.387 9.89679 18.5237 10.0089 18.6198 10.1528C18.716 10.2967 18.7673 10.4659 18.7673 10.639C18.7673 10.871 18.6751 11.0936 18.511 11.2577C18.3469 11.4218 18.1244 11.514 17.8923 11.514ZM16.4311 14.5313C16.4311 15.0121 16.2885 15.4821 16.0213 15.8819C15.7542 16.2816 15.3745 16.5932 14.9303 16.7772C14.4861 16.9612 13.9973 17.0094 13.5257 16.9156C13.0542 16.8218 12.621 16.5902 12.281 16.2503C11.941 15.9103 11.7095 15.4771 11.6157 15.0055C11.5219 14.5339 11.57 14.0451 11.754 13.6009C11.938 13.1567 12.2496 12.777 12.6494 12.5099C13.0492 12.2428 13.5192 12.1002 14 12.1002C14.6448 12.1002 15.2631 12.3563 15.719 12.8122C16.1749 13.2682 16.4311 13.8865 16.4311 14.5313ZM14 0.53125C11.2311 0.53125 8.52431 1.35234 6.22202 2.89068C3.91974 4.42902 2.12532 6.61552 1.06569 9.17368C0.00606595 11.7318 -0.271181 14.5468 0.269012 17.2625C0.809206 19.9783 2.14258 22.4728 4.10051 24.4307C6.05845 26.3887 8.55301 27.7221 11.2687 28.2622C13.9845 28.8024 16.7994 28.5252 19.3576 27.4656C21.9157 26.4059 24.1022 24.6115 25.6406 22.3092C27.1789 20.0069 28 17.3002 28 14.5313C28 10.8182 26.525 7.25727 23.8995 4.63176C21.274 2.00625 17.713 0.53125 14 0.53125ZM21.2479 17.5369C21.2356 18.142 21.1207 18.7406 20.9081 19.3073C20.7208 19.7916 20.4345 20.2314 20.0673 20.5985C19.7001 20.9657 19.2603 21.2521 18.7761 21.4394C18.2098 21.6518 17.6117 21.7667 17.0071 21.7792C16.2283 21.8142 15.9804 21.8229 14 21.8229C12.0196 21.8229 11.7717 21.8142 10.9929 21.7792C10.3883 21.7667 9.79019 21.6518 9.22397 21.4394C8.73968 21.2521 8.29987 20.9657 7.93272 20.5985C7.56556 20.2314 7.27917 19.7916 7.09188 19.3073C6.87949 18.7411 6.7646 18.143 6.75209 17.5383C6.71709 16.7596 6.70834 16.5117 6.70834 14.5313C6.70834 12.5508 6.71709 12.3029 6.75209 11.5242C6.76413 10.9196 6.87853 10.3215 7.09042 9.75521C7.2777 9.27052 7.56424 8.83033 7.93167 8.46291C8.29909 8.09549 8.73927 7.80894 9.22397 7.62167C9.79027 7.40978 10.3884 7.29538 10.9929 7.28333C11.7717 7.24833 12.0196 7.23958 14 7.23958C15.9804 7.23958 16.2283 7.24833 17.0071 7.28333C17.6116 7.29538 18.2097 7.40978 18.7761 7.62167C19.2605 7.80911 19.7004 8.09574 20.0675 8.46315C20.4347 8.83056 20.721 9.27066 20.9081 9.75521C21.1205 10.3214 21.2354 10.9196 21.2479 11.5242C21.2829 12.3029 21.2917 12.5508 21.2917 14.5313C21.2917 16.5117 21.2829 16.7581 21.2479 17.5369Z" fill="white"/>
</g>
<defs>
<clipPath id="clip0_675_168">
<rect width="28" height="28" fill="white" transform="translate(0 0.53125)"/>
</clipPath>
</defs>
</svg>
