<svg width="24" height="25" viewBox="0 0 24 25" fill="none" xmlns="http://www.w3.org/2000/svg">
<path d="M12.0029 12.5488C12.5004 12.5488 12.9257 12.3717 13.2789 12.0173C13.6322 11.663 13.8089 11.2371 13.8089 10.7396C13.8089 10.2421 13.6317 9.81668 13.2774 9.46334C12.923 9.11018 12.497 8.93359 11.9994 8.93359C11.5019 8.93359 11.0765 9.11076 10.7234 9.46509C10.37 9.81943 10.1934 10.2454 10.1934 10.7431C10.1934 11.2406 10.3705 11.6659 10.7249 12.0191C11.0792 12.3723 11.5052 12.5488 12.0029 12.5488ZM12.0011 20.1971C13.9575 18.4458 15.4545 16.7659 16.4924 15.1576C17.5302 13.5493 18.0491 12.1406 18.0491 10.9316C18.0491 9.10859 17.47 7.60993 16.3116 6.43559C15.1533 5.26126 13.7165 4.67409 12.0011 4.67409C10.2858 4.67409 8.84896 5.26126 7.69062 6.43559C6.53229 7.60993 5.95312 9.10859 5.95312 10.9316C5.95312 12.1406 6.47204 13.5493 7.50988 15.1576C8.54771 16.7659 10.0448 18.4458 12.0011 20.1971ZM12.0011 22.1931C9.48446 20.0124 7.59729 17.983 6.33962 16.1048C5.08196 14.2265 4.45312 12.5021 4.45312 10.9316C4.45312 8.62393 5.19954 6.75568 6.69237 5.32684C8.18537 3.89801 9.95496 3.18359 12.0011 3.18359C14.0473 3.18359 15.8169 3.89801 17.3099 5.32684C18.8027 6.75568 19.5491 8.62393 19.5491 10.9316C19.5491 12.5021 18.9203 14.2265 17.6626 16.1048C16.405 17.983 14.5178 20.0124 12.0011 22.1931Z" fill="white"/>
</svg>
