<svg width="28" height="29" viewBox="0 0 28 29" fill="none" xmlns="http://www.w3.org/2000/svg">
<g clip-path="url(#clip0_675_174)">
<path d="M14 0.53125C6.26719 0.53125 0 6.79844 0 14.5312C0 22.2641 6.26719 28.5312 14 28.5312C21.7328 28.5312 28 22.2641 28 14.5312C28 6.79844 21.7328 0.53125 14 0.53125ZM10.0844 20.3883H7.35547V11.6547H10.0844V20.3883ZM8.64609 10.5609H8.62422C7.63437 10.5609 6.99453 9.89375 6.99453 9.04609C6.99453 8.18203 7.65625 7.53125 8.6625 7.53125C9.66875 7.53125 10.2867 8.18203 10.3086 9.04609C10.3141 9.88828 9.67422 10.5609 8.64609 10.5609ZM21 20.3883H17.9047V15.8711C17.9047 14.6898 17.4234 13.8805 16.357 13.8805C15.5422 13.8805 15.0883 14.4273 14.8805 14.9523C14.8039 15.1383 14.8148 15.4008 14.8148 15.6687V20.3883H11.7469C11.7469 20.3883 11.7852 12.382 11.7469 11.6547H14.8148V13.0273C14.9953 12.4258 15.9742 11.5727 17.5383 11.5727C19.4797 11.5727 21 12.8305 21 15.532V20.3883Z" fill="white"/>
</g>
<defs>
<clipPath id="clip0_675_174">
<rect width="28" height="28" fill="white" transform="translate(0 0.53125)"/>
</clipPath>
</defs>
</svg>
