<svg width="68" height="69" viewBox="0 0 68 69" fill="none" xmlns="http://www.w3.org/2000/svg">
<path d="M66.0985 45.6435C63.1632 43.2704 59.7155 44.6148 56.9547 45.7019L56.0462 46.0526L54.9979 46.4501C53.4022 47.0462 50.5718 48.1217 48.2189 48.9984C48.5567 47.9229 48.5683 46.9527 48.2655 46.0526C46.8328 41.8326 42.9309 41.6221 40.345 41.6221H39.7627C34.7076 41.6221 30.1299 40.4297 24.4928 37.6476C21.6857 36.2565 19.5192 35.9993 16.5022 35.9993H11.2491C10.7832 34.7017 9.54856 33.7549 8.08091 33.7549H3.59655C1.73292 33.7549 0.21875 35.2745 0.21875 37.1449V59.519C0.21875 61.3894 1.73292 62.909 3.59655 62.909H8.10424C9.53693 62.909 10.7599 62.0089 11.2492 60.7348C12.6119 61.0738 15.3026 62.0207 18.6338 64.6041C19.9616 65.6328 21.604 66.3225 23.0716 66.9537C25.9486 68.1811 28.5227 68.789 30.8869 68.789C31.446 68.789 32.0051 68.754 32.5409 68.6838C36.0935 68.2279 39.3664 66.7199 42.5345 65.247C43.6993 64.7092 44.7941 64.2066 45.924 63.739L57.6418 58.5136C58.5736 58.046 59.5636 57.6252 60.5188 57.216C60.9731 57.0173 61.4274 56.8303 61.8816 56.6316C62.196 56.4913 62.5222 56.3627 62.86 56.2341C63.5821 55.9535 64.3276 55.6613 65.0264 55.2405C66.5289 54.3404 67.6005 52.3414 67.7519 50.1437C67.8917 48.2383 67.2866 46.602 66.0985 45.6435ZM9.22254 59.5194C9.22254 60.1389 8.72168 60.6533 8.09273 60.6533H3.59674C2.97941 60.6533 2.46693 60.1506 2.46693 59.5194V37.1452C2.46693 36.5257 2.96778 36.0114 3.59674 36.0114H8.10443C8.72176 36.0114 9.23424 36.514 9.23424 37.1452V59.5194H9.22254ZM63.8852 53.3004C63.3494 53.6277 62.7205 53.8615 62.0566 54.1187C61.6955 54.259 61.3344 54.3993 60.985 54.5512C60.5423 54.75 60.0997 54.937 59.6455 55.124C58.6554 55.5449 57.642 55.9774 56.6869 56.4566L45.0392 61.6469C43.886 62.1262 42.7213 62.6639 41.5914 63.19C38.5747 64.5811 35.4647 66.0306 32.2502 66.428C29.8507 66.732 27.1251 66.2176 23.9219 64.8499C22.5941 64.2888 21.0915 63.6458 19.9967 62.8041C16.1646 59.8349 13.0197 58.8179 11.4702 58.4672V38.244H16.5136C19.3091 38.244 21.0679 38.4544 23.5139 39.6585C29.4775 42.6043 34.3461 43.8668 39.7737 43.8668H39.9368C43.3961 43.8434 45.3064 44.2993 46.145 46.7659C46.3547 47.3971 46.2149 48.192 45.7141 49.209C45.1666 50.3079 43.6524 50.7988 42.0916 51.1496C41.7771 51.2197 41.4393 51.2314 41.0084 51.2314H26.4839C25.8666 51.2314 25.3541 51.7341 25.3541 52.3653C25.3541 52.9848 25.855 53.4992 26.4839 53.4992H41.0084C41.5092 53.4992 42.045 53.4758 42.5925 53.3589C43.2564 53.2069 44.2814 52.9615 45.2831 52.4822C46.7274 51.9678 53.0753 49.5714 55.8007 48.5427L56.849 48.1452C57.1518 48.0284 57.4663 47.9115 57.7924 47.7829C60.2384 46.8243 62.7777 45.8306 64.6995 47.3737C65.3052 47.8647 65.6081 48.7998 65.5265 49.9571C65.41 51.4301 64.7345 52.786 63.8842 53.3005L63.8852 53.3004Z" fill="#1D5876"/>
<path d="M34.021 36.011C42.757 35.824 47.1828 32.7262 47.1828 26.7878C47.1828 22.9887 45.3192 18.1841 42.5936 14.5721C43.77 14.2448 44.6436 13.0524 44.6436 11.6262C44.6436 9.94292 43.4323 8.57523 41.9413 8.57523H41.522L42.9663 4.10968C43.1993 3.40829 42.9896 2.62505 42.4538 2.13412C41.9413 1.66653 41.2309 1.54963 40.6018 1.81849C39.8797 2.13412 39.2041 2.29777 38.6334 2.29777C38.051 2.29777 37.818 2.13411 37.3988 1.84186C36.863 1.49117 36.1524 0.988525 34.8596 0.988525C33.5668 0.988525 32.8562 1.49119 32.3321 1.85353C31.9128 2.14578 31.6798 2.30944 31.0974 2.30944C30.55 2.30944 29.8977 2.14578 29.2106 1.85353C28.5816 1.57298 27.8594 1.68988 27.3469 2.16916C26.8111 2.66014 26.6131 3.43166 26.8461 4.14472L28.302 8.57518H27.7895C26.2986 8.57518 25.0872 9.94287 25.0872 11.6262C25.0872 12.5146 25.4367 13.3095 25.9725 13.8707C22.9324 17.5295 20.8125 22.7429 20.8125 26.7994C20.8125 32.7144 25.2385 35.824 34.021 36.011ZM34.021 33.7432C24.19 33.5328 23.0606 29.6635 23.0606 26.7761C23.0606 23.0237 25.2737 17.9038 28.2438 14.6651H39.7402C42.7104 17.9149 44.9235 23.0234 44.9235 26.7761C44.9351 29.6752 43.8051 33.5445 34.021 33.7432ZM29.2571 4.27293C29.8978 4.47165 30.5151 4.56517 31.0975 4.56517C32.3904 4.56517 33.1009 4.0625 33.6251 3.70016C34.0444 3.40792 34.2773 3.24425 34.8597 3.24425C35.442 3.24425 35.6751 3.40791 36.0943 3.70016C36.6184 4.06255 37.3289 4.56517 38.6218 4.56517C39.2275 4.56517 39.8682 4.45996 40.5437 4.24954L39.1576 8.56306H30.6661L29.2571 4.27293ZM27.7895 10.8309H41.9412C42.1276 10.8309 42.3955 11.1348 42.3955 11.6141C42.3955 12.0934 42.1159 12.3974 41.9412 12.3974H27.7895C27.6148 12.3974 27.3352 12.0817 27.3352 11.6141C27.3352 11.1349 27.6031 10.8309 27.7895 10.8309Z" fill="#1D5876"/>
<path d="M34.0026 20.8147C34.62 20.8147 35.1324 21.3174 35.1324 21.9486C35.1324 22.5798 35.6333 23.0825 36.2622 23.0825C36.8796 23.0825 37.3921 22.5798 37.3921 21.9486C37.3921 20.4756 36.4486 19.2366 35.1324 18.769V17.4129C35.1324 16.7934 34.6316 16.2791 34.0026 16.2791C33.3737 16.2791 32.8728 16.7817 32.8728 17.4129V18.769C31.5683 19.2366 30.6132 20.4756 30.6132 21.9486C30.6132 23.819 32.1274 25.3386 33.991 25.3386C34.6083 25.3386 35.1208 25.8413 35.1208 26.4725C35.1208 27.1037 34.6083 27.6064 33.991 27.6064C33.3737 27.6064 32.8612 27.092 32.8612 26.4725C32.8612 25.853 32.3603 25.3386 31.7314 25.3386C31.1024 25.3386 30.6016 25.8413 30.6016 26.4725C30.6016 27.9455 31.545 29.1845 32.8612 29.6521V31.0081C32.8612 31.6277 33.362 32.142 33.991 32.142C34.62 32.142 35.1208 31.6394 35.1208 31.0081V29.6521C36.4254 29.1845 37.3804 27.9455 37.3804 26.4725C37.3804 24.6021 35.8663 23.0825 34.0026 23.0825C33.3853 23.0825 32.8728 22.5798 32.8728 21.9486C32.8728 21.3174 33.3853 20.8147 34.0026 20.8147Z" fill="#1D5876"/>
</svg>
