<svg width="67" height="63" viewBox="0 0 67 63" fill="none" xmlns="http://www.w3.org/2000/svg">
<path d="M65.7448 30.3825L58.2166 22.7615V7.5727C58.2166 6.74139 57.5491 6.06807 56.7251 6.06807H48.8687C48.0447 6.06807 47.3772 6.74139 47.3772 7.5727V11.7857L38.7826 3.08134C35.9487 0.211234 31.0866 0.18119 28.2158 3.08134L1.25367 30.3833C0.616067 31.0303 0.425902 31.997 0.772669 32.8434C1.11944 33.6897 1.93225 34.2351 2.8384 34.2351H8.27855V55.168C8.27855 59.317 11.6232 62.6912 15.7359 62.6912H51.2632C55.3759 62.6912 58.7205 59.317 58.7205 55.168V34.2351H64.1607C65.0668 34.2351 65.8796 33.6897 66.2264 32.8434C66.5769 31.997 66.3868 31.0303 65.7454 30.3833L65.7448 30.3825ZM50.3604 9.07695H55.2338V19.7408L50.3604 14.8056V9.07695ZM40.0398 59.6816H26.9597V47.2421C26.9597 44.7519 28.9657 42.7282 31.4341 42.7282H35.5655C38.0338 42.7282 40.0399 44.7519 40.0399 47.2421L40.0398 59.6816ZM57.2293 31.2212C56.4052 31.2212 55.7378 31.8946 55.7378 32.7259V55.1639C55.7378 57.654 53.7317 59.6778 51.2634 59.6778H43.023V47.2382C43.023 43.0892 39.6783 39.7151 35.5656 39.7151L31.4342 39.7188C27.3215 39.7188 23.9768 43.0929 23.9768 47.242V59.6815H15.7364C13.2681 59.6815 11.262 57.6578 11.262 55.1676V32.7296C11.262 31.8983 10.5946 31.225 9.77051 31.225L4.63238 31.2212L30.3268 5.20198C32.0421 3.46412 34.9579 3.47163 36.6656 5.20198L62.36 31.2212H57.2293Z" fill="#1D5876"/>
</svg>
