<svg width="69" height="60" viewBox="0 0 69 60" fill="none" xmlns="http://www.w3.org/2000/svg">
<path d="M68.7616 27.3177C68.7616 25.7226 67.4649 24.4241 65.8638 24.4241H60.8617C64.5599 22.3372 66.86 18.4309 66.8889 14.1843C66.9143 9.93811 64.6686 6.00293 60.9956 3.86487C57.3227 1.72682 52.7842 1.71284 49.1006 3.8287C45.4132 5.94824 43.1421 9.86889 43.1457 14.1148V15.0806L34.1447 8.85583C30.3306 6.26972 25.3211 6.26972 21.5106 8.85583L13.9548 14.0353V10.7873C15.5559 10.7873 16.8526 9.48889 16.8526 7.8938V3.46676C16.8526 1.86806 15.5559 0.573242 13.9548 0.573242H3.44697C1.84595 0.573242 0.549247 1.86806 0.549247 3.46676V7.8938C0.549247 9.48889 1.84595 10.7873 3.44697 10.7873V21.2512C0.730344 22.9981 -0.370793 26.4161 0.820938 29.4145C2.00896 32.413 5.15668 34.1527 8.33333 33.5668V54.6427C8.33333 57.3662 10.5428 59.5761 13.2703 59.5797H65.8643C67.4653 59.5797 68.762 58.2849 68.762 56.6862V49.4922C68.7548 48.7725 68.4759 48.0853 67.9796 47.5644C68.4723 47.04 68.7512 46.3528 68.762 45.6331V38.3703C68.7584 37.6578 68.4904 36.9706 68.0086 36.4425C68.4904 35.9144 68.7584 35.2272 68.762 34.5147L68.7616 27.3177ZM66.831 27.3177V34.5152C66.831 34.7684 66.7296 35.0144 66.5484 35.1952C66.3673 35.3761 66.121 35.4773 65.8639 35.4773H63.7486V32.2764C63.7486 31.7447 63.3175 31.3107 62.7814 31.3107C62.249 31.3107 61.8179 31.7447 61.8179 32.2764V35.4773H58.5724V32.2764C58.5724 31.7447 58.1378 31.3107 57.6053 31.3107C57.0728 31.3107 56.6381 31.7447 56.6381 32.2764V35.4773H53.4035V32.2764C53.4035 31.7447 52.9725 31.3107 52.4364 31.3107C51.9039 31.3107 51.4729 31.7447 51.4729 32.2764V35.4773H48.2274V32.2764C48.2274 31.7447 47.7928 31.3107 47.2603 31.3107C46.7278 31.3107 46.2931 31.7447 46.2931 32.2764V35.4773H44.1778C43.6454 35.4773 43.2143 35.0469 43.2143 34.5152V27.3176C43.2143 26.7859 43.6453 26.3555 44.1778 26.3555H65.864C66.1211 26.3555 66.3674 26.4568 66.5485 26.6376C66.7296 26.8185 66.831 27.0645 66.831 27.3177ZM66.831 45.5649V45.5685C66.831 45.8217 66.7296 46.0676 66.5484 46.2485C66.3673 46.4293 66.121 46.5306 65.8639 46.5306H63.7486V43.3297C63.7486 42.798 63.3175 42.3639 62.7814 42.3639C62.249 42.3639 61.8179 42.798 61.8179 43.3297V46.5306H58.5724V43.3297C58.5724 42.798 58.1378 42.3639 57.6053 42.3639C57.0728 42.3639 56.6381 42.798 56.6381 43.3297V46.5306H53.4035V43.3297C53.4035 42.798 52.9725 42.3639 52.4364 42.3639C51.9039 42.3639 51.4729 42.798 51.4729 43.3297V46.5306H48.2274V43.3297C48.2274 42.798 47.7928 42.3639 47.2603 42.3639C46.7278 42.3639 46.2931 42.798 46.2931 43.3297V46.5306H44.1778C43.6454 46.5306 43.2143 46.1002 43.2143 45.5685V38.3709C43.2143 37.8392 43.6453 37.4087 44.1778 37.4087H65.864C66.1211 37.4087 66.3674 37.51 66.5485 37.6909C66.7296 37.8717 66.8311 38.1177 66.8311 38.3708L66.831 45.5649ZM55.0157 4.1908C59.0362 4.1908 62.662 6.60691 64.1978 10.3178C65.7373 14.0252 64.886 18.2931 62.0462 21.1327C59.2029 23.9719 54.9287 24.8219 51.212 23.2847C47.4993 21.7475 45.076 18.1306 45.076 14.1159C45.0869 8.63626 49.5315 4.20191 55.0157 4.1908ZM2.48011 7.8945V3.46747C2.48011 2.93217 2.91477 2.50173 3.44725 2.50173H13.9662C14.2234 2.50173 14.4697 2.603 14.6508 2.78385C14.8319 2.96469 14.9334 3.21064 14.9334 3.46744V7.89448C14.9334 8.14766 14.8319 8.3936 14.6508 8.57446C14.4697 8.7553 14.2234 8.85658 13.9662 8.85658H3.44725C2.91479 8.85658 2.48011 8.42622 2.48011 7.8945ZM12.0245 10.788V15.3706L5.38878 19.9243V10.788H12.0245ZM3.58124 30.0769C2.68657 29.0172 2.27731 27.6319 2.46202 26.2575C2.64674 24.883 3.40376 23.6497 4.54839 22.8612L22.6015 10.4408C25.7527 8.2996 29.8929 8.2996 33.0444 10.4408L43.7368 17.7903C44.6641 20.6007 46.6056 22.9625 49.1845 24.4238H44.1787C42.5813 24.4238 41.281 25.7222 41.281 27.3173V28.0009L30.6572 20.6803V20.6839C28.9657 19.5374 26.7453 19.5374 25.0537 20.6839L10.3259 30.7821C8.22503 32.2903 5.3235 31.9903 3.58124 30.0769ZM10.275 54.6713V32.9695C10.6843 32.8067 11.0755 32.6078 11.445 32.3727L26.1181 22.2746C27.1469 21.5765 28.4979 21.5765 29.5266 22.2746L41.2807 30.3366V34.5141C41.288 35.2266 41.556 35.9138 42.0341 36.4419C41.556 36.9699 41.288 37.6572 41.2807 38.3697V45.5672C41.2952 46.2834 41.5741 46.9706 42.0631 47.495C41.5669 48.0159 41.288 48.7067 41.2807 49.4228V56.6204C41.2843 56.9495 41.3423 57.2751 41.4546 57.5825H36.3183V45.3714C36.3183 43.0023 34.395 41.0746 32.0188 41.071H23.6335C21.261 41.0746 19.3376 43.0023 19.3376 45.3714V57.651H13.2814C11.6188 57.6474 10.275 56.2984 10.275 54.6418V54.6713ZM34.424 57.6806H21.2679V45.3723C21.2679 44.0665 22.3255 43.0068 23.6331 42.9996H32.0185C33.3297 43.0068 34.391 44.0665 34.3946 45.3723V57.6047C34.391 57.6192 34.3946 57.6372 34.4055 57.6517L34.424 57.6806ZM66.8498 56.7149C66.8498 56.9717 66.7484 57.2176 66.5673 57.3985C66.3862 57.5793 66.1399 57.6806 65.8827 57.6806H63.7492V54.4507C63.7492 53.9154 63.3182 53.4849 62.7821 53.4849C62.2496 53.4849 61.8185 53.9153 61.8185 54.4507V57.6516H58.5731V54.4507C58.5731 53.9154 58.1384 53.4849 57.6059 53.4849C57.0735 53.4849 56.6388 53.9153 56.6388 54.4507V57.6516H53.4042V54.4507C53.4042 53.9154 52.9732 53.4849 52.437 53.4849C51.9046 53.4849 51.4735 53.9153 51.4735 54.4507V57.6516H48.2281V54.4507C48.2281 53.9154 47.7934 53.4849 47.2609 53.4849C46.7284 53.4849 46.2938 53.9153 46.2938 54.4507V57.6516H44.1785C43.646 57.6516 43.2149 57.2212 43.2149 56.6859V49.4919C43.2149 48.9602 43.646 48.5261 44.1785 48.5261H65.8646C66.1218 48.5261 66.3681 48.6274 66.5492 48.8083C66.7303 48.9891 66.8317 49.2351 66.8317 49.4919L66.8498 56.7149Z" fill="#1D5876"/>
<path d="M55.2754 17.3564H52.6782C52.1458 17.3564 51.7111 17.7869 51.7111 18.3186C51.7111 18.8539 52.1458 19.2843 52.6782 19.2843H54.0511V20.5973C54.0511 21.129 54.4821 21.5594 55.0146 21.5594C55.5507 21.5594 55.9818 21.129 55.9818 20.5973V19.1976C57.4777 18.8322 58.4702 17.4108 58.2891 15.8809C58.1116 14.3546 56.8185 13.1972 55.2755 13.19H54.7647C54.4568 13.1827 54.1598 13.0525 53.9497 12.8283C53.7397 12.604 53.6274 12.3002 53.6455 11.9928C53.6491 11.3779 54.149 10.8824 54.7647 10.8824H57.3618C57.8979 10.8824 58.3289 10.452 58.3289 9.92028C58.3289 9.38498 57.8979 8.95454 57.3618 8.95454H55.9817V7.64157C55.9817 7.10989 55.5507 6.67944 55.0146 6.67944C54.4821 6.67944 54.0511 7.10985 54.0511 7.64157V9.04129C52.6602 9.3849 51.693 10.64 51.7112 12.0686C51.7112 12.8788 52.0299 13.6564 52.6022 14.2279C53.1782 14.7993 53.9533 15.1212 54.7646 15.1176H55.2754C55.8948 15.1176 56.3982 15.6168 56.3982 16.2352C56.3982 16.8537 55.8947 17.3564 55.2754 17.3564Z" fill="#1D5876"/>
</svg>
