<svg width="65" height="63" viewBox="0 0 65 63" fill="none" xmlns="http://www.w3.org/2000/svg">
<path d="M44.1702 16.9825H40.3202L54.9026 34.8936C55.1405 35.2703 55.1405 35.7493 54.9026 36.1261C54.9026 36.1261 54.7276 36.414 54.6401 36.414H52.4827C49.2588 36.414 46.6476 38.9839 46.6476 42.1538V59.376H37.8976V47.8936V47.8963C37.8976 46.3733 37.2851 44.9121 36.1886 43.8357C35.0948 42.7593 33.6128 42.1538 32.0652 42.1538H26.2328C23.0089 42.1538 20.3976 44.7237 20.3976 47.8963V59.3787H11.6476V42.1538C11.6476 40.6334 11.0351 39.1722 9.93865 38.0958C8.8449 37.0194 7.36286 36.4139 5.81523 36.4139H3.71523C3.71523 36.4139 3.51016 36.2417 3.45273 36.126C3.22305 35.7466 3.22305 35.2729 3.45273 34.8935L29.0601 3.46296H29.3801L34.1352 9.20278C34.9281 8.62691 35.8933 8.33361 36.8778 8.37129H37.0828L31.6578 1.68156C31.1164 0.876936 30.2032 0.392578 29.2215 0.392578C28.2398 0.392578 27.3266 0.87695 26.7851 1.68156L1.29533 33.0852C0.382045 34.1374 0.133195 35.6013 0.644552 36.8903C1.15588 38.1819 2.34807 39.0888 3.74534 39.2556H5.90274C6.67659 39.2556 7.41761 39.557 7.96445 40.0952C8.51129 40.6335 8.82034 41.3654 8.82034 42.1269V59.3491C8.82034 60.1107 9.12659 60.84 9.6735 61.3781C10.2204 61.9163 10.9614 62.2177 11.7352 62.2177H20.4852C21.2591 62.2177 22.0028 61.9163 22.5497 61.3781C23.0965 60.8399 23.4028 60.1107 23.4028 59.3491V47.8667C23.4028 46.2817 24.7099 44.9954 26.3204 44.9954H32.1528C32.9267 44.9954 33.6677 45.2995 34.2145 45.8377C34.7614 46.376 35.0704 47.1052 35.0704 47.8667V59.3491C35.0704 60.1107 35.3767 60.84 35.9236 61.3781C36.4705 61.9163 37.2114 62.2177 37.9853 62.2177H46.7353C47.5091 62.2177 48.2529 61.9163 48.7997 61.3781C49.3466 60.8399 49.6529 60.1107 49.6529 59.3491V42.1269C49.6529 40.5419 50.9599 39.2556 52.5705 39.2556H54.7279C56.1252 39.0888 57.3173 38.1819 57.8287 36.8903C58.34 35.6013 58.0912 34.1374 57.1779 33.0852L44.1702 16.9825Z" fill="#1D5876"/>
<path d="M62.5168 10.6371L58.4043 6.58984L56.3344 8.62958L59.0168 11.2398H35.4219V14.1111H59.0168L56.3344 16.7241L58.4043 18.7611L64.5867 12.6769L62.5168 10.6371Z" fill="#1D5876"/>
</svg>
