<svg width="31" height="31" viewBox="0 0 31 31" fill="none" xmlns="http://www.w3.org/2000/svg">
<path fill-rule="evenodd" clip-rule="evenodd" d="M5.23437 14.71C5.23437 9.87747 9.15189 5.95996 13.9844 5.95996C18.8169 5.95996 22.7344 9.87747 22.7344 14.71C22.7344 19.5425 18.8169 23.46 13.9844 23.46C9.15189 23.46 5.23437 19.5425 5.23437 14.71ZM13.9844 3.45996C7.77117 3.45996 2.73438 8.49676 2.73438 14.71C2.73438 20.9232 7.77117 25.96 13.9844 25.96C16.6406 25.96 19.0819 25.0393 21.0065 23.4998L25.6005 28.0938C26.0886 28.582 26.8801 28.582 27.3682 28.0938C27.8564 27.6057 27.8564 26.8142 27.3682 26.3261L22.7742 21.7321C24.3137 19.8075 25.2344 17.3662 25.2344 14.71C25.2344 8.49676 20.1976 3.45996 13.9844 3.45996Z" fill="#1D5876"/>
</svg>
