<svg width="80" height="79" viewBox="0 0 80 79" fill="none" xmlns="http://www.w3.org/2000/svg">
<path d="M3.65753 70.3749L17.4347 56.6286L22.7302 61.9122L8.95303 75.6584C8.78765 75.8235 8.65646 76.0194 8.56696 76.2349C8.47745 76.4505 8.43139 76.6816 8.43139 76.915C8.43139 77.1483 8.47745 77.3794 8.56696 77.595C8.65646 77.8106 8.78765 78.0065 8.95303 78.1715C9.11841 78.3365 9.31474 78.4674 9.53082 78.5567C9.7469 78.646 9.97849 78.692 10.2124 78.692C10.4463 78.692 10.6779 78.646 10.8939 78.5567C11.11 78.4674 11.3063 78.3365 11.4717 78.1715L25.24 64.4252L28.6665 67.8441C30.2448 69.4144 32.3828 70.2963 34.6117 70.2963C36.8407 70.2963 38.9787 69.4144 40.5569 67.8441L50.0443 58.3869L54.8414 63.1732C55.1754 63.5064 55.6284 63.6936 56.1008 63.6936C56.5731 63.6936 57.0261 63.5064 57.3601 63.1732C57.6941 62.8399 57.8818 62.3879 57.8818 61.9166C57.8818 61.4454 57.6941 60.9934 57.3601 60.6601L18.6896 22.0854C18.3556 21.7522 17.9026 21.5649 17.4303 21.5649C16.9579 21.5649 16.5049 21.7522 16.1709 22.0854C15.8369 22.4187 15.6493 22.8706 15.6493 23.3419C15.6493 23.8132 15.8369 24.2652 16.1709 24.5984L20.968 29.3848L11.4895 38.8331C9.9156 40.4078 9.03174 42.541 9.03174 44.7649C9.03174 46.9889 9.9156 49.122 11.4895 50.6968L14.916 54.1156L1.13883 67.8707C0.973447 68.0357 0.84226 68.2316 0.752757 68.4472C0.663254 68.6628 0.617188 68.8939 0.617188 69.1272C0.617187 69.3606 0.663254 69.5916 0.752757 69.8072C0.84226 70.0228 0.973447 70.2187 1.13883 70.3837C1.30421 70.5487 1.50054 70.6796 1.71662 70.7689C1.9327 70.8582 2.16429 70.9042 2.39818 70.9042C2.63206 70.9042 2.86365 70.8582 3.07973 70.7689C3.29581 70.6796 3.49215 70.5487 3.65753 70.3837V70.3749ZM14.0082 48.1748C13.1006 47.2675 12.5909 46.038 12.5909 44.756C12.5909 43.4741 13.1006 42.2446 14.0082 41.3372L23.4867 31.8889L47.5167 55.8649L38.0471 65.331C37.1378 66.2366 35.9054 66.7452 34.6206 66.7452C33.3358 66.7452 32.1035 66.2366 31.1941 65.331L14.0082 48.1748Z" fill="#001827"/>
<path d="M76.1227 8.64108L62.3455 22.3873L57.05 17.1037L70.8272 3.35748C71.1612 3.02423 71.3488 2.57225 71.3488 2.10096C71.3488 1.62968 71.1612 1.17769 70.8272 0.844442C70.4932 0.511192 70.0402 0.323975 69.5678 0.323975C69.0955 0.323975 68.6425 0.511192 68.3085 0.844442L54.5402 14.5907L51.1048 11.1719C49.5265 9.60149 47.3885 8.71962 45.1596 8.71962C42.9306 8.71962 40.7927 9.60149 39.2144 11.1719L29.7359 20.6291L24.9388 15.8428C24.6048 15.5095 24.1518 15.3223 23.6794 15.3223C23.2071 15.3223 22.7541 15.5095 22.4201 15.8428C22.0861 16.176 21.8984 16.628 21.8984 17.0993C21.8984 17.5706 22.0861 18.0226 22.4201 18.3558L28.4721 24.3942L55.0208 50.8921L61.0728 56.9305C61.2382 57.0955 61.4345 57.2264 61.6506 57.3157C61.8667 57.405 62.0982 57.451 62.3321 57.451C62.566 57.451 62.7976 57.405 63.0137 57.3157C63.2298 57.2264 63.4261 57.0955 63.5915 56.9305C63.7569 56.7655 63.888 56.5696 63.9775 56.354C64.0671 56.1384 64.1131 55.9074 64.1131 55.674C64.1131 55.4406 64.0671 55.2096 63.9775 54.994C63.888 54.7784 63.7569 54.5825 63.5915 54.4175L58.7944 49.6312L68.2907 40.1828C69.8646 38.6081 70.7485 36.4749 70.7485 34.251C70.7485 32.0271 69.8646 29.8939 68.2907 28.3192L64.8642 24.9004L78.6414 11.1452C78.9754 10.812 79.163 10.36 79.163 9.88872C79.163 9.41744 78.9754 8.96545 78.6414 8.6322C78.3074 8.29895 77.8544 8.11173 77.382 8.11173C76.9097 8.11173 76.4567 8.29895 76.1227 8.6322V8.64108ZM65.772 30.8411C66.6796 31.7484 67.1893 32.978 67.1893 34.2599C67.1893 35.5418 66.6796 36.7714 65.772 37.6787L56.2935 47.127L32.2635 23.151L41.7331 13.6849C42.6425 12.7793 43.8748 12.2707 45.1596 12.2707C46.4444 12.2707 47.6767 12.7793 48.5861 13.6849L65.772 30.8411Z" fill="#001827"/>
</svg>
