<svg width="79" height="78" viewBox="0 0 79 78" fill="none" xmlns="http://www.w3.org/2000/svg">
<path d="M39.8877 0.337402C18.432 0.337402 0.976562 17.6716 0.976562 38.9784C0.976562 60.2851 18.432 77.6193 39.8877 77.6193C61.3435 77.6193 78.7989 60.2851 78.7989 38.9784C78.7989 17.6716 61.3435 0.337402 39.8877 0.337402ZM39.8877 74.2322C20.3128 74.2322 4.38732 58.4173 4.38732 38.9784C4.38732 19.5394 20.3128 3.72448 39.8877 3.72448C59.4626 3.72448 75.3881 19.5394 75.3881 38.9784C75.3881 58.4173 59.4626 74.2322 39.8877 74.2322ZM26.2456 33.605C29.7498 33.605 32.6013 30.7733 32.6013 27.2934C32.6013 23.8135 29.7498 20.9818 26.2456 20.9818C22.7413 20.9818 19.8898 23.8135 19.8898 27.2934C19.8898 30.7733 22.7404 33.605 26.2456 33.605ZM26.2456 24.3688C27.8699 24.3688 29.1915 25.6812 29.1915 27.2943C29.1915 28.9073 27.8699 30.2188 26.2456 30.2188C24.6212 30.2188 23.2997 28.9064 23.2997 27.2943C23.2997 25.6803 24.6212 24.3688 26.2456 24.3688ZM53.5299 33.605C57.0341 33.605 59.8857 30.7733 59.8857 27.2934C59.8857 23.8135 57.0341 20.9818 53.5299 20.9818C50.0256 20.9818 47.1741 23.8135 47.1741 27.2934C47.1741 30.7733 50.0247 33.605 53.5299 33.605ZM53.5299 24.3688C55.1542 24.3688 56.4749 25.6812 56.4749 27.2943C56.4749 28.9073 55.1533 30.2188 53.5299 30.2188C51.9055 30.2188 50.584 28.9064 50.584 27.2943C50.584 25.6803 51.9055 24.3688 53.5299 24.3688ZM64.8878 47.9033C64.5717 47.431 64.0382 47.1462 63.4665 47.1462H16.3081C15.7363 47.1462 15.2029 47.431 14.8868 47.9033C14.5706 48.3764 14.5145 48.9751 14.7363 49.4977C19.0117 59.5661 28.8834 66.0723 39.8859 66.0723C50.8885 66.0723 60.761 59.5661 65.0374 49.4977C65.26 48.9751 65.2039 48.3764 64.8878 47.9033ZM39.8868 62.6861C31.1453 62.6861 23.2195 57.9928 19.034 50.5333H60.7415C56.5559 57.9928 48.6292 62.6861 39.8868 62.6861Z" fill="#001827"/>
</svg>
