<svg width="72" height="73" viewBox="0 0 72 73" fill="none" xmlns="http://www.w3.org/2000/svg">
<path fill-rule="evenodd" clip-rule="evenodd" d="M36.9466 1.23178L43.813 6.87188L52.5388 5.4703C53.3266 5.34166 54.0976 5.7953 54.3848 6.55026L57.5492 14.9156L65.7976 18.1249C66.5453 18.4161 66.9892 19.1947 66.8624 19.9971L65.4804 28.8466L71.0416 35.8105C71.5457 36.4402 71.5457 37.3407 71.0416 37.9704L65.4804 44.9342L66.8624 53.7838C66.9893 54.5827 66.542 55.3647 65.7976 55.6559L57.5492 58.8653L54.3848 67.2306C54.0977 67.989 53.3299 68.4392 52.5388 68.3106L43.813 66.909L36.9466 72.5491C36.3257 73.0603 35.4378 73.0603 34.8169 72.5491L27.9504 66.909L19.2247 68.3106C18.4369 68.4392 17.6658 67.9856 17.3787 67.2306L14.2142 58.8653L5.96587 55.6559C5.21815 55.3648 4.77421 54.5861 4.90102 53.7838L6.28299 44.9342L0.721784 37.9704C0.217739 37.3407 0.217739 36.4402 0.721784 35.8105L6.28299 28.8466L4.90102 19.9971C4.77418 19.1982 5.22148 18.4161 5.96587 18.1249L14.2142 14.9156L17.3787 6.55026C17.6657 5.79531 18.4335 5.34507 19.2247 5.4703L27.9504 6.87188L34.8169 1.23178C35.4377 0.72059 36.3257 0.72059 36.9466 1.23178ZM35.8817 4.7729L29.496 10.0169C29.1221 10.3216 28.6381 10.4536 28.1674 10.3792L20.0492 9.07241L17.105 16.8521C16.9348 17.3058 16.5776 17.6646 16.1304 17.8406L8.4561 20.8266L9.74459 29.0565C9.82136 29.5373 9.69118 30.0281 9.38741 30.4039L4.2134 36.8803L9.38741 43.3566C9.68784 43.7358 9.81803 44.2267 9.74459 44.704L8.4561 52.934L16.1304 55.9199C16.5777 56.0926 16.9315 56.4514 17.105 56.905L20.0492 64.6881L28.1674 63.3814C28.6414 63.3035 29.1254 63.4356 29.496 63.7436L35.8817 68.991L42.2675 63.7436C42.6413 63.4389 43.1254 63.3069 43.596 63.3814L51.7142 64.6881L54.6584 56.905C54.8286 56.4514 55.1858 56.0925 55.6331 55.9199L63.3073 52.934L62.0188 44.704C61.9421 44.2233 62.0723 43.7324 62.376 43.3566L67.55 36.8803L62.376 30.4039C62.0756 30.0248 61.9454 29.5339 62.0188 29.0565L63.3073 20.8266L55.6331 17.8406C55.1858 17.668 54.8319 17.3091 54.6584 16.8521L51.7142 9.07241L43.596 10.3792C43.122 10.4536 42.638 10.325 42.2675 10.0169L35.8817 4.7729ZM35.8817 14.5264C48.0487 14.5264 57.9298 24.5468 57.9298 36.8872C57.9298 49.2303 48.0496 59.2481 35.8817 59.2481C23.7113 59.2481 13.8302 49.2277 13.8302 36.8872C13.8302 24.5442 23.7104 14.5264 35.8817 14.5264ZM35.8817 17.9591C25.5802 17.9591 17.215 26.443 17.215 36.8871C17.215 47.3348 25.5803 55.8151 35.8817 55.8151C46.1833 55.8151 54.545 47.3313 54.545 36.8871C54.545 26.4395 46.1798 17.9591 35.8817 17.9591ZM21.7219 37.1203C21.0443 36.4669 21.0176 35.3802 21.6585 34.6929C22.3027 34.0057 23.3742 33.9786 24.0519 34.632L31.9531 42.2424L47.7092 27.0618C48.3868 26.4084 49.4584 26.4389 50.1026 27.1261C50.7469 27.8134 50.7168 28.9001 50.0392 29.5535L33.1183 45.8572C32.4641 46.4869 31.4393 46.4869 30.7883 45.8572L21.7225 37.123L21.7219 37.1203Z" fill="#001827"/>
</svg>
