<svg width="89" height="63" viewBox="0 0 89 63" fill="none" xmlns="http://www.w3.org/2000/svg">
<path d="M44.4921 0.115633C44.3085 0.14283 44.1296 0.195411 43.9605 0.271864L1.93635 17.2697C1.57319 17.4224 1.26319 17.6787 1.04521 18.0067C0.827218 18.3346 0.710938 18.7196 0.710938 19.1133C0.710938 19.507 0.827218 19.8919 1.04521 20.2198C1.26319 20.5478 1.57319 20.8041 1.93635 20.9568L16.6948 26.9248V49.1095C16.6948 56.4113 23.0512 62.1079 30.7029 62.1079H58.719C66.3707 62.1079 72.727 56.4113 72.727 49.1095V26.9248L80.7316 23.6752V59.1083C80.7279 59.3733 80.7769 59.6364 80.8758 59.8823C80.9747 60.1282 81.1215 60.352 81.3077 60.5407C81.4939 60.7294 81.7157 60.8793 81.9604 60.9815C82.205 61.0838 82.4676 61.1365 82.7328 61.1365C82.998 61.1365 83.2606 61.0838 83.5052 60.9815C83.7499 60.8793 83.9717 60.7294 84.1579 60.5407C84.3441 60.352 84.4909 60.1282 84.5898 59.8823C84.6887 59.6364 84.7377 59.3733 84.7339 59.1083V22.0816L87.4855 20.9568C87.8487 20.8041 88.1587 20.5478 88.3767 20.2198C88.5947 19.8919 88.7109 19.507 88.7109 19.1133C88.7109 18.7196 88.5947 18.3346 88.3767 18.0067C88.1587 17.6787 87.8487 17.4224 87.4855 17.2697L45.4614 0.271864C45.1563 0.140168 44.8231 0.0864744 44.4921 0.115633ZM44.7109 4.27136L76.5105 17.1135H46.7121C46.6496 17.1106 46.587 17.1106 46.5245 17.1135C46.2617 17.1258 46.0039 17.1897 45.7658 17.3016C45.5276 17.4134 45.3139 17.571 45.1368 17.7654C44.9597 17.9598 44.8226 18.1872 44.7334 18.4346C44.6442 18.6819 44.6046 18.9444 44.6169 19.207C44.6293 19.4696 44.6932 19.7273 44.8052 19.9652C44.9171 20.2031 45.0749 20.4167 45.2695 20.5937C45.464 20.7707 45.6916 20.9076 45.9391 20.9967C46.1866 21.0858 46.4493 21.1254 46.7121 21.113H76.4792L44.7109 33.9552L8.00234 19.1133L44.7109 4.27136ZM20.6971 28.5496L43.9605 37.9547C44.4419 38.1492 44.98 38.1492 45.4614 37.9547L68.7247 28.5496V49.1095C68.7247 54.1038 64.4326 58.1084 58.719 58.1084H30.7029C24.9892 58.1084 20.6971 54.1038 20.6971 49.1095V28.5496Z" fill="#001827"/>
</svg>
