<svg width="28" height="29" viewBox="0 0 28 29" fill="none" xmlns="http://www.w3.org/2000/svg">
<g clip-path="url(#clip0_675_170)">
<path d="M12.1328 17.2274L16.7156 14.5368L12.1328 11.8462V17.2274Z" fill="white"/>
<path d="M14 0.53125C6.26719 0.53125 0 6.79844 0 14.5312C0 22.2641 6.26719 28.5312 14 28.5312C21.7328 28.5312 28 22.2641 28 14.5312C28 6.79844 21.7328 0.53125 14 0.53125ZM21 17.0359C21 19.4477 18.5883 19.4477 18.5883 19.4477H9.41172C7 19.4477 7 17.0359 7 17.0359V12.032C7 9.62031 9.41172 9.62031 9.41172 9.62031H18.5883C21 9.62031 21 12.032 21 12.032V17.0359Z" fill="white"/>
</g>
<defs>
<clipPath id="clip0_675_170">
<rect width="28" height="28" fill="white" transform="translate(0 0.53125)"/>
</clipPath>
</defs>
</svg>
